<svg xmlns="http://www.w3.org/2000/svg" viewBox="0 0 504 696">
<defs><radialGradient id="fB" cx="50%" cy="50%" r="70%">
<stop offset="0%" stop-color="#fff" stop-opacity="0.2"/><stop offset="42%" stop-color="#fff" stop-opacity="0.9"/><stop offset="100%" stop-color="#fff" stop-opacity="0.10"/></radialGradient>
<mask id="mB"><rect width="504" height="696" fill="url(#fB)"/></mask></defs>
<g mask="url(#mB)">
<ellipse cx="252" cy="348" rx="68.4" ry="61.5" transform="rotate(-12.8 252 348)" fill="none" stroke="#C7CEDB" stroke-width="0.53" opacity="0.143"/><ellipse cx="252" cy="348" rx="105.7" ry="103.3" transform="rotate(-9.6 252 348)" fill="none" stroke="#C7CEDB" stroke-width="0.64" opacity="0.222"/><ellipse cx="252" cy="348" rx="141.2" ry="143.7" transform="rotate(-11.6 252 348)" fill="none" stroke="#C7CEDB" stroke-width="0.72" opacity="0.228"/><ellipse cx="252" cy="348" rx="171.9" ry="172.5" transform="rotate(-13.3 252 348)" fill="none" stroke="#C7CEDB" stroke-width="0.54" opacity="0.161"/><ellipse cx="252" cy="348" rx="207.0" ry="194.6" transform="rotate(-15.1 252 348)" fill="none" stroke="#C7CEDB" stroke-width="0.67" opacity="0.071"/><ellipse cx="252" cy="348" rx="238.1" ry="204.3" transform="rotate(-15.4 252 348)" fill="none" stroke="#C7CEDB" stroke-width="0.57" opacity="0.021"/><ellipse cx="252" cy="348" rx="276.7" ry="220.1" transform="rotate(-8.2 252 348)" fill="none" stroke="#C7CEDB" stroke-width="0.68" opacity="0.035"/><ellipse cx="252" cy="348" rx="308.9" ry="241.6" transform="rotate(-13.0 252 348)" fill="none" stroke="#C7CEDB" stroke-width="0.80" opacity="0.089"/><ellipse cx="252" cy="348" rx="340.2" ry="280.4" transform="rotate(-9.2 252 348)" fill="none" stroke="#C7CEDB" stroke-width="0.95" opacity="0.131"/><ellipse cx="252" cy="348" rx="372.3" ry="335.8" transform="rotate(-11.4 252 348)" fill="none" stroke="#C7CEDB" stroke-width="0.64" opacity="0.128"/><ellipse cx="252" cy="348" rx="407.1" ry="398.5" transform="rotate(-10.5 252 348)" fill="none" stroke="#C7CEDB" stroke-width="0.67" opacity="0.085"/><ellipse cx="252" cy="348" rx="447.4" ry="455.7" transform="rotate(-14.7 252 348)" fill="none" stroke="#C7CEDB" stroke-width="0.84" opacity="0.035"/><ellipse cx="252" cy="348" rx="479.8" ry="481.1" transform="rotate(-12.0 252 348)" fill="none" stroke="#C7CEDB" stroke-width="0.91" opacity="0.009"/><ellipse cx="252" cy="348" rx="509.9" ry="478.5" transform="rotate(-11.7 252 348)" fill="none" stroke="#C7CEDB" stroke-width="0.93" opacity="0.015"/><ellipse cx="252" cy="348" rx="545.0" ry="466.5" transform="rotate(-14.5 252 348)" fill="none" stroke="#C7CEDB" stroke-width="0.78" opacity="0.033"/><ellipse cx="252" cy="348" rx="581.7" ry="462.2" transform="rotate(-11.5 252 348)" fill="none" stroke="#C7CEDB" stroke-width="0.75" opacity="0.040"/><ellipse cx="252" cy="348" rx="617.0" ry="482.8" transform="rotate(-15.2 252 348)" fill="none" stroke="#C7CEDB" stroke-width="0.53" opacity="0.028"/><ellipse cx="252" cy="348" rx="645.7" ry="533.2" transform="rotate(-15.1 252 348)" fill="none" stroke="#C7CEDB" stroke-width="0.87" opacity="0.011"/>
<line x1="252" y1="348" x2="461.4" y2="55.2" stroke="#9DB4E6" stroke-width="0.6" opacity="0.32"/><circle cx="367.2" cy="186.9" r="2.1" fill="#9DB4E6" opacity="0.9"/><circle cx="367.2" cy="186.9" r="5.5" fill="#7FA8FF" opacity="0.28"/><circle cx="430.0" cy="99.1" r="2.1" fill="#9DB4E6" opacity="0.9"/><circle cx="430.0" cy="99.1" r="5.5" fill="#7FA8FF" opacity="0.28"/>
<line x1="252" y1="348" x2="40.1" y2="639.1" stroke="#9DB4E6" stroke-width="0.6" opacity="0.32"/><circle cx="124.9" cy="522.6" r="2.1" fill="#9DB4E6" opacity="0.9"/><circle cx="124.9" cy="522.6" r="5.5" fill="#7FA8FF" opacity="0.28"/><circle cx="61.3" cy="610.0" r="2.1" fill="#9DB4E6" opacity="0.9"/><circle cx="61.3" cy="610.0" r="5.5" fill="#7FA8FF" opacity="0.28"/>
</g></svg>