<svg xmlns="http://www.w3.org/2000/svg" viewBox="0 0 504 696">
<g opacity="0.85"><path d="M -30.0 48.5 Q -12.0 46.9 -3.0 45.5 Q 6.0 44.0 15.0 42.4 Q 24.0 40.7 33.0 39.3 Q 42.0 37.9 51.0 37.1 Q 60.0 36.2 69.0 35.9 Q 78.0 35.6 87.0 35.6 Q 96.0 35.6 105.0 35.7 Q 114.0 35.7 123.0 35.4 Q 132.0 35.0 141.0 34.2 Q 150.0 33.3 159.0 32.0 Q 168.0 30.7 177.0 29.3 Q 186.0 27.8 195.0 26.7 Q 204.0 25.5 213.0 25.2 Q 222.0 24.8 231.0 25.5 Q 240.0 26.1 249.0 27.9 Q 258.0 29.7 267.0 32.2 Q 276.0 34.8 285.0 37.7 Q 294.0 40.7 303.0 43.4 Q 312.0 46.0 321.0 48.1 Q 330.0 50.1 339.0 51.2 Q 348.0 52.3 357.0 52.5 Q 366.0 52.7 375.0 52.4 Q 384.0 52.1 393.0 51.6 Q 402.0 51.1 411.0 50.8 Q 420.0 50.5 429.0 50.6 Q 438.0 50.7 447.0 51.2 Q 456.0 51.6 465.0 52.2 Q 474.0 52.7 483.0 52.9 Q 492.0 53.1 501.0 52.6 Q 510.0 52.2 519.0 50.9 T 528.0 49.6" stroke="#C7CEDB" stroke-width="0.76" fill="none" opacity="0.055"/><path d="M -30.0 69.3 Q -12.0 65.3 -3.0 62.4 Q 6.0 59.4 15.0 56.8 Q 24.0 54.2 33.0 52.8 Q 42.0 51.5 51.0 51.2 Q 60.0 50.8 69.0 50.7 Q 78.0 50.5 87.0 49.5 Q 96.0 48.6 105.0 46.5 Q 114.0 44.5 123.0 42.1 Q 132.0 39.7 141.0 38.3 Q 150.0 36.8 159.0 37.5 Q 168.0 38.1 177.0 41.0 Q 186.0 44.0 195.0 48.3 Q 204.0 52.7 213.0 56.9 Q 222.0 61.2 231.0 63.9 Q 240.0 66.6 249.0 67.3 Q 258.0 68.0 267.0 67.2 Q 276.0 66.4 285.0 65.3 Q 294.0 64.2 303.0 63.7 Q 312.0 63.3 321.0 63.6 Q 330.0 64.0 339.0 64.4 Q 348.0 64.8 357.0 64.2 Q 366.0 63.6 375.0 61.3 Q 384.0 59.1 393.0 55.4 Q 402.0 51.7 411.0 48.0 Q 420.0 44.2 429.0 41.8 Q 438.0 39.4 447.0 39.4 Q 456.0 39.4 465.0 41.7 Q 474.0 43.9 483.0 47.4 Q 492.0 50.8 501.0 53.9 Q 510.0 57.1 519.0 59.0 T 528.0 60.9" stroke="#C7CEDB" stroke-width="0.74" fill="none" opacity="0.106"/><path d="M -30.0 55.7 Q -12.0 65.9 -3.0 72.6 Q 6.0 79.4 15.0 85.2 Q 24.0 91.0 33.0 93.7 Q 42.0 96.5 51.0 95.7 Q 60.0 94.9 69.0 92.0 Q 78.0 89.1 87.0 86.3 Q 96.0 83.5 105.0 82.0 Q 114.0 80.6 123.0 80.3 Q 132.0 80.1 141.0 79.5 Q 150.0 78.9 159.0 76.3 Q 168.0 73.7 177.0 68.9 Q 186.0 64.0 195.0 58.2 Q 204.0 52.4 213.0 48.2 Q 222.0 43.9 231.0 43.3 Q 240.0 42.7 249.0 45.9 Q 258.0 49.2 267.0 54.8 Q 276.0 60.4 285.0 65.8 Q 294.0 71.2 303.0 74.5 Q 312.0 77.7 321.0 78.4 Q 330.0 79.2 339.0 78.8 Q 348.0 78.3 357.0 78.5 Q 366.0 78.6 375.0 80.2 Q 384.0 81.8 393.0 84.1 Q 402.0 86.3 411.0 87.3 Q 420.0 88.3 429.0 86.2 Q 438.0 84.2 447.0 78.8 Q 456.0 73.4 465.0 66.4 Q 474.0 59.3 483.0 53.2 Q 492.0 47.1 501.0 44.1 Q 510.0 41.2 519.0 41.8 T 528.0 42.5" stroke="#C7CEDB" stroke-width="0.80" fill="none" opacity="0.152"/><path d="M -30.0 107.1 Q -12.0 112.6 -3.0 112.7 Q 6.0 112.7 15.0 110.5 Q 24.0 108.3 33.0 104.9 Q 42.0 101.5 51.0 98.2 Q 60.0 94.8 69.0 92.6 Q 78.0 90.3 87.0 89.2 Q 96.0 88.2 105.0 87.9 Q 114.0 87.5 123.0 86.9 Q 132.0 86.2 141.0 84.5 Q 150.0 82.7 159.0 79.5 Q 168.0 76.4 177.0 72.4 Q 186.0 68.4 195.0 64.7 Q 204.0 61.1 213.0 59.1 Q 222.0 57.1 231.0 57.8 Q 240.0 58.4 249.0 61.7 Q 258.0 64.9 267.0 70.0 Q 276.0 75.1 285.0 80.6 Q 294.0 86.1 303.0 90.6 Q 312.0 95.1 321.0 97.6 Q 330.0 100.1 339.0 100.6 Q 348.0 101.1 357.0 100.3 Q 366.0 99.5 375.0 98.5 Q 384.0 97.5 393.0 97.1 Q 402.0 96.8 411.0 97.4 Q 420.0 98.1 429.0 99.2 Q 438.0 100.2 447.0 100.8 Q 456.0 101.3 465.0 100.2 Q 474.0 99.2 483.0 96.0 Q 492.0 92.8 501.0 87.8 Q 510.0 82.8 519.0 77.1 T 528.0 71.4" stroke="#C7CEDB" stroke-width="0.57" fill="none" opacity="0.188"/><path d="M -30.0 120.8 Q -12.0 113.1 -3.0 108.6 Q 6.0 104.1 15.0 100.8 Q 24.0 97.5 33.0 96.0 Q 42.0 94.6 51.0 94.4 Q 60.0 94.1 69.0 93.6 Q 78.0 93.1 87.0 91.2 Q 96.0 89.3 105.0 86.1 Q 114.0 82.8 123.0 79.7 Q 132.0 76.6 141.0 75.4 Q 150.0 74.2 159.0 76.3 Q 168.0 78.4 177.0 83.5 Q 186.0 88.6 195.0 95.1 Q 204.0 101.6 213.0 107.2 Q 222.0 112.8 231.0 115.8 Q 240.0 118.8 249.0 118.9 Q 258.0 119.1 267.0 117.4 Q 276.0 115.8 285.0 114.1 Q 294.0 112.4 303.0 111.9 Q 312.0 111.3 321.0 111.8 Q 330.0 112.3 339.0 112.5 Q 348.0 112.8 357.0 111.3 Q 366.0 109.8 375.0 106.0 Q 384.0 102.1 393.0 96.6 Q 402.0 91.1 411.0 85.9 Q 420.0 80.7 429.0 77.9 Q 438.0 75.2 447.0 75.9 Q 456.0 76.7 465.0 80.6 Q 474.0 84.4 483.0 89.5 Q 492.0 94.6 501.0 99.0 Q 510.0 103.4 519.0 105.8 T 528.0 108.2" stroke="#C7CEDB" stroke-width="0.70" fill="none" opacity="0.212"/><path d="M -30.0 89.0 Q -12.0 88.3 -3.0 88.0 Q 6.0 87.6 15.0 87.9 Q 24.0 88.2 33.0 89.7 Q 42.0 91.2 51.0 94.3 Q 60.0 97.4 69.0 101.9 Q 78.0 106.5 87.0 112.1 Q 96.0 117.7 105.0 123.5 Q 114.0 129.3 123.0 134.4 Q 132.0 139.5 141.0 143.1 Q 150.0 146.7 159.0 148.2 Q 168.0 149.7 177.0 148.9 Q 186.0 148.2 195.0 145.7 Q 204.0 143.1 213.0 139.4 Q 222.0 135.6 231.0 131.6 Q 240.0 127.5 249.0 123.9 Q 258.0 120.3 267.0 117.8 Q 276.0 115.2 285.0 113.8 Q 294.0 112.5 303.0 112.1 Q 312.0 111.7 321.0 111.8 Q 330.0 111.9 339.0 111.9 Q 348.0 111.8 357.0 111.1 Q 366.0 110.3 375.0 108.6 Q 384.0 107.0 393.0 104.4 Q 402.0 101.9 411.0 99.0 Q 420.0 96.2 429.0 93.7 Q 438.0 91.2 447.0 89.8 Q 456.0 88.5 465.0 89.0 Q 474.0 89.4 483.0 91.9 Q 492.0 94.5 501.0 98.9 Q 510.0 103.3 519.0 109.1 T 528.0 114.9" stroke="#C7CEDB" stroke-width="0.86" fill="none" opacity="0.220"/><path d="M -30.0 175.3 Q -12.0 168.0 -3.0 161.9 Q 6.0 155.9 15.0 149.9 Q 24.0 144.0 33.0 140.1 Q 42.0 136.2 51.0 134.5 Q 60.0 132.9 69.0 132.2 Q 78.0 131.5 87.0 129.9 Q 96.0 128.2 105.0 124.5 Q 114.0 120.7 123.0 115.5 Q 132.0 110.2 141.0 105.4 Q 150.0 100.5 159.0 98.7 Q 168.0 96.9 177.0 99.5 Q 186.0 102.1 195.0 108.7 Q 204.0 115.3 213.0 123.8 Q 222.0 132.2 231.0 139.5 Q 240.0 146.8 249.0 150.8 Q 258.0 154.8 267.0 154.9 Q 276.0 155.1 285.0 152.9 Q 294.0 150.7 303.0 148.2 Q 312.0 145.7 321.0 144.6 Q 330.0 143.6 339.0 144.0 Q 348.0 144.4 357.0 144.8 Q 366.0 145.2 375.0 143.6 Q 384.0 142.0 393.0 137.2 Q 402.0 132.3 411.0 124.7 Q 420.0 117.1 429.0 108.8 Q 438.0 100.6 447.0 94.6 Q 456.0 88.7 465.0 87.1 Q 474.0 85.5 483.0 88.5 Q 492.0 91.5 501.0 97.4 Q 510.0 103.2 519.0 109.4 T 528.0 115.5" stroke="#C7CEDB" stroke-width="0.72" fill="none" opacity="0.212"/><path d="M -30.0 167.3 Q -12.0 175.2 -3.0 176.3 Q 6.0 177.4 15.0 175.7 Q 24.0 174.0 33.0 170.5 Q 42.0 167.0 51.0 163.1 Q 60.0 159.3 69.0 156.3 Q 78.0 153.3 87.0 151.8 Q 96.0 150.2 105.0 149.7 Q 114.0 149.1 123.0 148.6 Q 132.0 148.1 141.0 146.6 Q 150.0 145.1 159.0 142.0 Q 168.0 138.9 177.0 134.5 Q 186.0 130.1 195.0 125.5 Q 204.0 120.9 213.0 117.7 Q 222.0 114.4 231.0 113.8 Q 240.0 113.2 249.0 115.6 Q 258.0 118.1 267.0 123.1 Q 276.0 128.1 285.0 134.2 Q 294.0 140.4 303.0 146.0 Q 312.0 151.7 321.0 155.5 Q 330.0 159.3 339.0 160.8 Q 348.0 162.4 357.0 162.0 Q 366.0 161.6 375.0 160.5 Q 384.0 159.4 393.0 158.7 Q 402.0 158.0 411.0 158.3 Q 420.0 158.6 429.0 159.8 Q 438.0 161.0 447.0 162.1 Q 456.0 163.3 465.0 163.1 Q 474.0 162.9 483.0 160.5 Q 492.0 158.1 501.0 153.3 Q 510.0 148.5 519.0 142.2 T 528.0 135.9" stroke="#C7CEDB" stroke-width="0.71" fill="none" opacity="0.188"/><path d="M -30.0 169.0 Q -12.0 161.3 -3.0 158.3 Q 6.0 155.2 15.0 153.5 Q 24.0 151.8 33.0 151.4 Q 42.0 150.9 51.0 150.9 Q 60.0 150.9 69.0 150.6 Q 78.0 150.3 87.0 149.1 Q 96.0 147.9 105.0 145.7 Q 114.0 143.6 123.0 141.2 Q 132.0 138.7 141.0 137.0 Q 150.0 135.4 159.0 135.4 Q 168.0 135.5 177.0 137.8 Q 186.0 140.1 195.0 144.4 Q 204.0 148.7 213.0 154.1 Q 222.0 159.5 231.0 164.7 Q 240.0 169.9 249.0 173.7 Q 258.0 177.5 267.0 179.2 Q 276.0 180.9 285.0 180.7 Q 294.0 180.4 303.0 178.9 Q 312.0 177.5 321.0 175.8 Q 330.0 174.1 339.0 173.0 Q 348.0 171.9 357.0 171.7 Q 366.0 171.6 375.0 171.9 Q 384.0 172.3 393.0 172.4 Q 402.0 172.5 411.0 171.6 Q 420.0 170.6 429.0 168.0 Q 438.0 165.5 447.0 161.6 Q 456.0 157.6 465.0 153.2 Q 474.0 148.8 483.0 145.2 Q 492.0 141.5 501.0 139.7 Q 510.0 137.9 519.0 138.6 T 528.0 139.2" stroke="#C7CEDB" stroke-width="0.72" fill="none" opacity="0.152"/><path d="M -30.0 167.7 Q -12.0 168.4 -3.0 168.4 Q 6.0 168.5 15.0 168.0 Q 24.0 167.5 33.0 166.7 Q 42.0 165.9 51.0 165.3 Q 60.0 164.6 69.0 164.7 Q 78.0 164.7 87.0 165.8 Q 96.0 166.9 105.0 169.1 Q 114.0 171.4 123.0 174.3 Q 132.0 177.3 141.0 180.3 Q 150.0 183.4 159.0 185.8 Q 168.0 188.3 177.0 189.5 Q 186.0 190.8 195.0 190.7 Q 204.0 190.6 213.0 189.3 Q 222.0 188.0 231.0 186.1 Q 240.0 184.2 249.0 182.3 Q 258.0 180.4 267.0 179.0 Q 276.0 177.6 285.0 176.9 Q 294.0 176.1 303.0 175.8 Q 312.0 175.6 321.0 175.4 Q 330.0 175.1 339.0 174.5 Q 348.0 173.9 357.0 172.6 Q 366.0 171.2 375.0 169.3 Q 384.0 167.4 393.0 165.2 Q 402.0 163.1 411.0 161.3 Q 420.0 159.6 429.0 158.9 Q 438.0 158.2 447.0 158.9 Q 456.0 159.5 465.0 161.5 Q 474.0 163.5 483.0 166.3 Q 492.0 169.2 501.0 172.2 Q 510.0 175.2 519.0 177.7 T 528.0 180.2" stroke="#C7CEDB" stroke-width="0.81" fill="none" opacity="0.106"/><path d="M -30.0 174.9 Q -12.0 175.6 -3.0 176.2 Q 6.0 176.7 15.0 176.5 Q 24.0 176.3 33.0 175.5 Q 42.0 174.6 51.0 174.1 Q 60.0 173.6 69.0 174.7 Q 78.0 175.8 87.0 178.9 Q 96.0 182.0 105.0 186.3 Q 114.0 190.5 123.0 194.3 Q 132.0 198.0 141.0 199.8 Q 150.0 201.5 159.0 201.0 Q 168.0 200.5 177.0 198.6 Q 186.0 196.7 195.0 194.8 Q 204.0 192.9 213.0 192.1 Q 222.0 191.2 231.0 191.2 Q 240.0 191.2 249.0 191.0 Q 258.0 190.8 267.0 189.5 Q 276.0 188.2 285.0 185.8 Q 294.0 183.4 303.0 181.0 Q 312.0 178.6 321.0 177.7 Q 330.0 176.8 339.0 178.3 Q 348.0 179.8 357.0 183.3 Q 366.0 186.8 375.0 190.9 Q 384.0 194.9 393.0 197.9 Q 402.0 200.9 411.0 202.1 Q 420.0 203.3 429.0 203.2 Q 438.0 203.1 447.0 202.8 Q 456.0 202.5 465.0 203.0 Q 474.0 203.5 483.0 204.6 Q 492.0 205.7 501.0 206.4 Q 510.0 207.0 519.0 206.1 T 528.0 205.2" stroke="#C7CEDB" stroke-width="0.76" fill="none" opacity="0.055"/><circle cx="252" cy="70" r="2.1" fill="#9DB4E6" opacity="0.85"/><circle cx="252" cy="70" r="5.5" fill="#7FA8FF" opacity="0.30"/><circle cx="150" cy="120" r="2.1" fill="#9DB4E6" opacity="0.85"/><circle cx="150" cy="120" r="5.5" fill="#7FA8FF" opacity="0.30"/><circle cx="360" cy="120" r="2.1" fill="#9DB4E6" opacity="0.85"/><circle cx="360" cy="120" r="5.5" fill="#7FA8FF" opacity="0.30"/></g>
<g opacity="0.7"><path d="M -30.0 544.0 Q -12.0 541.0 -3.0 538.7 Q 6.0 536.5 15.0 534.2 Q 24.0 531.8 33.0 530.0 Q 42.0 528.2 51.0 527.0 Q 60.0 525.9 69.0 525.4 Q 78.0 524.8 87.0 524.3 Q 96.0 523.9 105.0 523.0 Q 114.0 522.2 123.0 520.7 Q 132.0 519.2 141.0 517.2 Q 150.0 515.2 159.0 513.2 Q 168.0 511.2 177.0 509.7 Q 186.0 508.3 195.0 508.0 Q 204.0 507.7 213.0 508.8 Q 222.0 509.8 231.0 512.0 Q 240.0 514.2 249.0 516.9 Q 258.0 519.6 267.0 522.0 Q 276.0 524.5 285.0 526.0 Q 294.0 527.5 303.0 527.9 Q 312.0 528.3 321.0 527.8 Q 330.0 527.2 339.0 526.1 Q 348.0 525.0 357.0 524.0 Q 366.0 523.1 375.0 522.5 Q 384.0 521.9 393.0 521.8 Q 402.0 521.8 411.0 521.8 Q 420.0 521.8 429.0 521.4 Q 438.0 521.0 447.0 519.8 Q 456.0 518.5 465.0 516.3 Q 474.0 514.1 483.0 511.1 Q 492.0 508.2 501.0 505.1 Q 510.0 502.1 519.0 499.7 T 528.0 497.3" stroke="#C7CEDB" stroke-width="0.89" fill="none" opacity="0.050"/><path d="M -30.0 539.6 Q -12.0 533.5 -3.0 532.0 Q 6.0 530.6 15.0 530.4 Q 24.0 530.2 33.0 530.0 Q 42.0 529.9 51.0 528.8 Q 60.0 527.7 69.0 525.7 Q 78.0 523.8 87.0 522.0 Q 96.0 520.3 105.0 520.2 Q 114.0 520.2 123.0 522.6 Q 132.0 525.0 141.0 529.4 Q 150.0 533.7 159.0 538.4 Q 168.0 543.1 177.0 546.3 Q 186.0 549.5 195.0 550.2 Q 204.0 551.0 213.0 549.6 Q 222.0 548.3 231.0 546.2 Q 240.0 544.1 249.0 542.7 Q 258.0 541.2 267.0 540.8 Q 276.0 540.4 285.0 540.3 Q 294.0 540.2 303.0 539.3 Q 312.0 538.4 321.0 535.9 Q 330.0 533.3 339.0 529.5 Q 348.0 525.7 357.0 522.1 Q 366.0 518.5 375.0 516.9 Q 384.0 515.2 393.0 516.3 Q 402.0 517.4 411.0 520.8 Q 420.0 524.1 429.0 528.3 Q 438.0 532.4 447.0 535.5 Q 456.0 538.6 465.0 540.0 Q 474.0 541.4 483.0 541.4 Q 492.0 541.4 501.0 541.2 Q 510.0 541.1 519.0 541.8 T 528.0 542.5" stroke="#C7CEDB" stroke-width="0.74" fill="none" opacity="0.096"/><path d="M -30.0 535.3 Q -12.0 534.5 -3.0 533.8 Q 6.0 533.1 15.0 534.0 Q 24.0 534.9 33.0 538.7 Q 42.0 542.5 51.0 548.9 Q 60.0 555.2 69.0 561.9 Q 78.0 568.7 87.0 573.1 Q 96.0 577.6 105.0 578.0 Q 114.0 578.4 123.0 575.0 Q 132.0 571.5 141.0 566.2 Q 150.0 560.9 159.0 556.2 Q 168.0 551.4 177.0 548.9 Q 186.0 546.3 195.0 545.6 Q 204.0 545.0 213.0 544.6 Q 222.0 544.3 231.0 542.7 Q 240.0 541.1 249.0 537.7 Q 258.0 534.4 267.0 530.7 Q 276.0 526.9 285.0 525.0 Q 294.0 523.2 303.0 525.0 Q 312.0 526.8 321.0 532.3 Q 330.0 537.8 339.0 545.3 Q 348.0 552.7 357.0 559.2 Q 366.0 565.7 375.0 569.2 Q 384.0 572.6 393.0 572.6 Q 402.0 572.6 411.0 570.5 Q 420.0 568.4 429.0 566.3 Q 438.0 564.3 447.0 563.6 Q 456.0 562.9 465.0 563.4 Q 474.0 563.9 483.0 563.8 Q 492.0 563.8 501.0 561.5 Q 510.0 559.2 519.0 554.1 T 528.0 549.1" stroke="#C7CEDB" stroke-width="0.80" fill="none" opacity="0.138"/><path d="M -30.0 562.1 Q -12.0 551.4 -3.0 549.2 Q 6.0 547.1 15.0 547.1 Q 24.0 547.1 33.0 547.1 Q 42.0 547.2 51.0 545.4 Q 60.0 543.7 69.0 540.3 Q 78.0 536.9 87.0 534.0 Q 96.0 531.0 105.0 531.2 Q 114.0 531.4 123.0 536.2 Q 132.0 541.0 141.0 549.5 Q 150.0 558.1 159.0 567.4 Q 168.0 576.7 177.0 583.3 Q 186.0 590.0 195.0 592.1 Q 204.0 594.2 213.0 592.3 Q 222.0 590.3 231.0 586.7 Q 240.0 583.0 249.0 580.3 Q 258.0 577.5 267.0 576.8 Q 276.0 576.1 285.0 576.3 Q 294.0 576.6 303.0 575.6 Q 312.0 574.6 321.0 570.7 Q 330.0 566.8 339.0 560.2 Q 348.0 553.6 357.0 546.8 Q 366.0 540.0 375.0 536.1 Q 384.0 532.2 393.0 533.4 Q 402.0 534.6 411.0 540.5 Q 420.0 546.4 429.0 554.6 Q 438.0 562.7 447.0 569.8 Q 456.0 576.9 465.0 580.8 Q 474.0 584.8 483.0 585.7 Q 492.0 586.6 501.0 586.4 Q 510.0 586.3 519.0 587.3 T 528.0 588.3" stroke="#C7CEDB" stroke-width="0.59" fill="none" opacity="0.171"/><path d="M -30.0 582.2 Q -12.0 576.7 -3.0 575.8 Q 6.0 574.8 15.0 574.8 Q 24.0 574.7 33.0 574.3 Q 42.0 573.8 51.0 572.3 Q 60.0 570.7 69.0 568.0 Q 78.0 565.3 87.0 562.5 Q 96.0 559.6 105.0 557.9 Q 114.0 556.3 123.0 557.0 Q 132.0 557.8 141.0 561.4 Q 150.0 565.1 159.0 571.0 Q 168.0 577.0 177.0 583.8 Q 186.0 590.6 195.0 596.5 Q 204.0 602.4 213.0 605.8 Q 222.0 609.2 231.0 609.6 Q 240.0 610.0 249.0 607.8 Q 258.0 605.7 267.0 602.2 Q 276.0 598.8 285.0 595.5 Q 294.0 592.2 303.0 590.1 Q 312.0 587.9 321.0 587.0 Q 330.0 586.1 339.0 585.8 Q 348.0 585.4 357.0 584.4 Q 366.0 583.5 375.0 580.8 Q 384.0 578.2 393.0 573.7 Q 402.0 569.2 411.0 563.6 Q 420.0 557.9 429.0 552.5 Q 438.0 547.1 447.0 543.7 Q 456.0 540.2 465.0 539.9 Q 474.0 539.5 483.0 542.4 Q 492.0 545.3 501.0 550.5 Q 510.0 555.8 519.0 561.8 T 528.0 567.8" stroke="#C7CEDB" stroke-width="0.75" fill="none" opacity="0.193"/><path d="M -30.0 628.6 Q -12.0 621.3 -3.0 617.3 Q 6.0 613.3 15.0 609.6 Q 24.0 605.9 33.0 603.0 Q 42.0 600.2 51.0 598.4 Q 60.0 596.5 69.0 595.6 Q 78.0 594.7 87.0 594.3 Q 96.0 593.8 105.0 593.4 Q 114.0 592.9 123.0 591.9 Q 132.0 590.9 141.0 589.0 Q 150.0 587.2 159.0 584.5 Q 168.0 581.8 177.0 578.6 Q 186.0 575.4 195.0 572.3 Q 204.0 569.2 213.0 566.9 Q 222.0 564.7 231.0 563.8 Q 240.0 563.0 249.0 564.0 Q 258.0 564.9 267.0 567.8 Q 276.0 570.6 285.0 574.9 Q 294.0 579.3 303.0 584.4 Q 312.0 589.6 321.0 594.7 Q 330.0 599.9 339.0 604.2 Q 348.0 608.6 357.0 611.5 Q 366.0 614.5 375.0 615.8 Q 384.0 617.2 393.0 617.0 Q 402.0 616.8 411.0 615.6 Q 420.0 614.3 429.0 612.6 Q 438.0 610.9 447.0 609.3 Q 456.0 607.7 465.0 606.7 Q 474.0 605.7 483.0 605.4 Q 492.0 605.1 501.0 605.3 Q 510.0 605.5 519.0 605.9 T 528.0 606.2" stroke="#C7CEDB" stroke-width="0.70" fill="none" opacity="0.200"/><path d="M -30.0 598.8 Q -12.0 597.4 -3.0 596.8 Q 6.0 596.1 15.0 596.1 Q 24.0 596.1 33.0 597.3 Q 42.0 598.5 51.0 601.2 Q 60.0 603.9 69.0 607.8 Q 78.0 611.8 87.0 616.6 Q 96.0 621.4 105.0 626.2 Q 114.0 631.0 123.0 635.0 Q 132.0 638.9 141.0 641.2 Q 150.0 643.5 159.0 643.9 Q 168.0 644.2 177.0 642.5 Q 186.0 640.8 195.0 637.6 Q 204.0 634.4 213.0 630.4 Q 222.0 626.4 231.0 622.4 Q 240.0 618.4 249.0 615.1 Q 258.0 611.8 267.0 609.6 Q 276.0 607.3 285.0 606.2 Q 294.0 605.0 303.0 604.6 Q 312.0 604.1 321.0 603.8 Q 330.0 603.5 339.0 602.8 Q 348.0 602.1 357.0 600.6 Q 366.0 599.1 375.0 596.7 Q 384.0 594.3 393.0 591.4 Q 402.0 588.5 411.0 585.6 Q 420.0 582.8 429.0 580.8 Q 438.0 578.8 447.0 578.3 Q 456.0 577.8 465.0 579.1 Q 474.0 580.5 483.0 583.8 Q 492.0 587.0 501.0 591.7 Q 510.0 596.3 519.0 601.6 T 528.0 606.9" stroke="#C7CEDB" stroke-width="0.68" fill="none" opacity="0.193"/><path d="M -30.0 624.6 Q -12.0 617.2 -3.0 615.0 Q 6.0 612.8 15.0 612.2 Q 24.0 611.5 33.0 611.6 Q 42.0 611.8 51.0 611.8 Q 60.0 611.8 69.0 610.9 Q 78.0 610.0 87.0 608.0 Q 96.0 606.1 105.0 603.7 Q 114.0 601.3 123.0 599.5 Q 132.0 597.8 141.0 597.8 Q 150.0 597.9 159.0 600.3 Q 168.0 602.8 177.0 607.5 Q 186.0 612.2 195.0 618.2 Q 204.0 624.3 213.0 630.1 Q 222.0 636.0 231.0 640.3 Q 240.0 644.6 249.0 646.6 Q 258.0 648.7 267.0 648.4 Q 276.0 648.1 285.0 646.4 Q 294.0 644.6 303.0 642.6 Q 312.0 640.5 321.0 639.0 Q 330.0 637.6 339.0 637.2 Q 348.0 636.8 357.0 637.1 Q 366.0 637.4 375.0 637.5 Q 384.0 637.6 393.0 636.6 Q 402.0 635.6 411.0 632.9 Q 420.0 630.2 429.0 626.1 Q 438.0 622.0 447.0 617.4 Q 456.0 612.7 465.0 609.0 Q 474.0 605.2 483.0 603.6 Q 492.0 601.9 501.0 603.0 Q 510.0 604.1 519.0 607.6 T 528.0 611.1" stroke="#C7CEDB" stroke-width="0.77" fill="none" opacity="0.171"/><path d="M -30.0 640.6 Q -12.0 649.3 -3.0 653.4 Q 6.0 657.4 15.0 659.9 Q 24.0 662.4 33.0 662.8 Q 42.0 663.2 51.0 661.8 Q 60.0 660.3 69.0 658.0 Q 78.0 655.7 87.0 653.5 Q 96.0 651.3 105.0 649.9 Q 114.0 648.6 123.0 648.1 Q 132.0 647.6 141.0 647.2 Q 150.0 646.9 159.0 645.9 Q 168.0 644.9 177.0 642.6 Q 186.0 640.4 195.0 636.9 Q 204.0 633.5 213.0 629.7 Q 222.0 626.0 231.0 623.1 Q 240.0 620.2 249.0 619.3 Q 258.0 618.4 267.0 619.7 Q 276.0 621.1 285.0 624.3 Q 294.0 627.5 303.0 631.4 Q 312.0 635.3 321.0 638.7 Q 330.0 642.0 339.0 644.0 Q 348.0 645.9 357.0 646.4 Q 366.0 646.8 375.0 646.4 Q 384.0 645.9 393.0 645.5 Q 402.0 645.0 411.0 645.3 Q 420.0 645.5 429.0 646.5 Q 438.0 647.5 447.0 648.6 Q 456.0 649.8 465.0 650.1 Q 474.0 650.4 483.0 648.9 Q 492.0 647.5 501.0 644.2 Q 510.0 641.0 519.0 636.4 T 528.0 631.8" stroke="#C7CEDB" stroke-width="0.78" fill="none" opacity="0.138"/><path d="M -30.0 638.5 Q -12.0 639.7 -3.0 640.1 Q 6.0 640.6 15.0 640.6 Q 24.0 640.6 33.0 640.3 Q 42.0 639.9 51.0 639.4 Q 60.0 638.9 69.0 638.6 Q 78.0 638.4 87.0 638.8 Q 96.0 639.2 105.0 640.6 Q 114.0 642.0 123.0 644.3 Q 132.0 646.6 141.0 649.6 Q 150.0 652.6 159.0 655.8 Q 168.0 658.9 177.0 661.7 Q 186.0 664.4 195.0 666.2 Q 204.0 668.0 213.0 668.7 Q 222.0 669.4 231.0 669.0 Q 240.0 668.5 249.0 667.4 Q 258.0 666.2 267.0 664.8 Q 276.0 663.3 285.0 662.1 Q 294.0 660.9 303.0 660.1 Q 312.0 659.4 321.0 659.2 Q 330.0 659.0 339.0 659.1 Q 348.0 659.3 357.0 659.3 Q 366.0 659.4 375.0 659.1 Q 384.0 658.7 393.0 657.8 Q 402.0 656.9 411.0 655.4 Q 420.0 653.9 429.0 652.1 Q 438.0 650.4 447.0 648.9 Q 456.0 647.4 465.0 646.7 Q 474.0 645.9 483.0 646.3 Q 492.0 646.7 501.0 648.3 Q 510.0 649.8 519.0 652.4 T 528.0 654.9" stroke="#C7CEDB" stroke-width="0.57" fill="none" opacity="0.096"/><path d="M -30.0 684.1 Q -12.0 680.5 -3.0 678.9 Q 6.0 677.2 15.0 676.0 Q 24.0 674.7 33.0 673.9 Q 42.0 673.0 51.0 672.5 Q 60.0 672.1 69.0 671.8 Q 78.0 671.5 87.0 671.2 Q 96.0 670.9 105.0 670.4 Q 114.0 669.9 123.0 669.1 Q 132.0 668.3 141.0 667.2 Q 150.0 666.1 159.0 664.8 Q 168.0 663.5 177.0 662.2 Q 186.0 661.0 195.0 660.0 Q 204.0 659.0 213.0 658.5 Q 222.0 658.1 231.0 658.3 Q 240.0 658.5 249.0 659.4 Q 258.0 660.4 267.0 661.9 Q 276.0 663.4 285.0 665.3 Q 294.0 667.1 303.0 669.1 Q 312.0 671.0 321.0 672.7 Q 330.0 674.3 339.0 675.5 Q 348.0 676.7 357.0 677.2 Q 366.0 677.8 375.0 677.7 Q 384.0 677.6 393.0 677.0 Q 402.0 676.4 411.0 675.5 Q 420.0 674.7 429.0 673.7 Q 438.0 672.8 447.0 672.0 Q 456.0 671.3 465.0 670.8 Q 474.0 670.3 483.0 670.0 Q 492.0 669.8 501.0 669.7 Q 510.0 669.6 519.0 669.5 T 528.0 669.3" stroke="#C7CEDB" stroke-width="0.65" fill="none" opacity="0.050"/><circle cx="252" cy="628" r="2.1" fill="#9DB4E6" opacity="0.85"/><circle cx="252" cy="628" r="5.5" fill="#7FA8FF" opacity="0.30"/><circle cx="160" cy="585" r="2.1" fill="#9DB4E6" opacity="0.85"/><circle cx="160" cy="585" r="5.5" fill="#7FA8FF" opacity="0.30"/><circle cx="352" cy="585" r="2.1" fill="#9DB4E6" opacity="0.85"/><circle cx="352" cy="585" r="5.5" fill="#7FA8FF" opacity="0.30"/></g>
</svg>