<svg xmlns="http://www.w3.org/2000/svg" viewBox="0 0 504 696">
<defs><radialGradient id="fF" cx="78%" cy="10%" r="95%">
<stop offset="0%" stop-color="#fff" stop-opacity="1"/><stop offset="55%" stop-color="#fff" stop-opacity="0.85"/><stop offset="100%" stop-color="#fff" stop-opacity="0.10"/></radialGradient>
<mask id="mF"><rect width="504" height="696" fill="url(#fF)"/></mask></defs>
<g mask="url(#mF)">
<ellipse cx="404" cy="54" rx="43.9" ry="39.5" transform="rotate(-17.0 404 54)" fill="none" stroke="#C7CEDB" stroke-width="0.78" opacity="0.187"/><ellipse cx="404" cy="54" rx="90.2" ry="88.2" transform="rotate(-17.0 404 54)" fill="none" stroke="#C7CEDB" stroke-width="0.94" opacity="0.288"/><ellipse cx="404" cy="54" rx="136.4" ry="138.9" transform="rotate(-17.1 404 54)" fill="none" stroke="#C7CEDB" stroke-width="0.91" opacity="0.294"/><ellipse cx="404" cy="54" rx="175.0" ry="175.6" transform="rotate(-17.6 404 54)" fill="none" stroke="#C7CEDB" stroke-width="0.87" opacity="0.205"/><ellipse cx="404" cy="54" rx="224.4" ry="211.0" transform="rotate(-16.5 404 54)" fill="none" stroke="#C7CEDB" stroke-width="0.78" opacity="0.089"/><ellipse cx="404" cy="54" rx="270.3" ry="231.9" transform="rotate(-16.2 404 54)" fill="none" stroke="#C7CEDB" stroke-width="0.67" opacity="0.026"/><ellipse cx="404" cy="54" rx="308.4" ry="245.3" transform="rotate(-12.8 404 54)" fill="none" stroke="#C7CEDB" stroke-width="0.94" opacity="0.043"/><ellipse cx="404" cy="54" rx="357.0" ry="279.2" transform="rotate(-16.6 404 54)" fill="none" stroke="#C7CEDB" stroke-width="0.64" opacity="0.107"/><ellipse cx="404" cy="54" rx="399.9" ry="329.6" transform="rotate(-9.1 404 54)" fill="none" stroke="#C7CEDB" stroke-width="0.85" opacity="0.154"/><ellipse cx="404" cy="54" rx="439.0" ry="396.0" transform="rotate(-12.3 404 54)" fill="none" stroke="#C7CEDB" stroke-width="0.62" opacity="0.147"/><ellipse cx="404" cy="54" rx="483.0" ry="472.8" transform="rotate(-8.7 404 54)" fill="none" stroke="#C7CEDB" stroke-width="0.77" opacity="0.094"/><ellipse cx="404" cy="54" rx="533.9" ry="543.8" transform="rotate(-10.8 404 54)" fill="none" stroke="#C7CEDB" stroke-width="0.84" opacity="0.037"/><ellipse cx="404" cy="54" rx="573.5" ry="574.9" transform="rotate(-16.9 404 54)" fill="none" stroke="#C7CEDB" stroke-width="0.86" opacity="0.009"/><ellipse cx="404" cy="54" rx="618.1" ry="580.0" transform="rotate(-16.2 404 54)" fill="none" stroke="#C7CEDB" stroke-width="0.63" opacity="0.013"/><ellipse cx="404" cy="54" rx="662.7" ry="567.3" transform="rotate(-14.7 404 54)" fill="none" stroke="#C7CEDB" stroke-width="0.88" opacity="0.024"/><ellipse cx="404" cy="54" rx="708.2" ry="562.6" transform="rotate(-8.6 404 54)" fill="none" stroke="#C7CEDB" stroke-width="0.76" opacity="0.019"/>
<line x1="404" y1="54" x2="-27.3" y2="411.1" stroke="#9DB4E6" stroke-width="0.6" opacity="0.32"/><circle cx="283.2" cy="154.0" r="2.1" fill="#9DB4E6" opacity="0.9"/><circle cx="283.2" cy="154.0" r="5.5" fill="#7FA8FF" opacity="0.28"/><circle cx="179.7" cy="239.7" r="2.1" fill="#9DB4E6" opacity="0.9"/><circle cx="179.7" cy="239.7" r="5.5" fill="#7FA8FF" opacity="0.28"/><circle cx="67.6" cy="332.6" r="2.1" fill="#9DB4E6" opacity="0.9"/><circle cx="67.6" cy="332.6" r="5.5" fill="#7FA8FF" opacity="0.28"/>
<line x1="404" y1="54" x2="-8.3" y2="134.0" stroke="#9DB4E6" stroke-width="0.6" opacity="0.32"/><circle cx="218.5" cy="90.0" r="2.1" fill="#9DB4E6" opacity="0.9"/><circle cx="218.5" cy="90.0" r="5.5" fill="#7FA8FF" opacity="0.28"/><circle cx="65.9" cy="119.6" r="2.1" fill="#9DB4E6" opacity="0.9"/><circle cx="65.9" cy="119.6" r="5.5" fill="#7FA8FF" opacity="0.28"/>
</g></svg>