<svg xmlns="http://www.w3.org/2000/svg" viewBox="0 0 504 696">
<defs><radialGradient id="fade" cx="62%" cy="14%" r="78%">
<stop offset="0%" stop-color="#fff" stop-opacity="1"/><stop offset="58%" stop-color="#fff" stop-opacity="0.9"/><stop offset="100%" stop-color="#fff" stop-opacity="0.12"/></radialGradient>
<mask id="m"><rect width="504" height="696" fill="url(#fade)"/></mask></defs>
<g mask="url(#m)"><path d="M -30.0 44.3 Q -12.0 42.7 -3.0 40.8 Q 6.0 38.8 15.0 36.6 Q 24.0 34.3 33.0 32.6 Q 42.0 31.0 51.0 30.1 Q 60.0 29.3 69.0 29.1 Q 78.0 28.9 87.0 28.6 Q 96.0 28.3 105.0 27.4 Q 114.0 26.5 123.0 24.8 Q 132.0 23.2 141.0 21.1 Q 150.0 19.1 159.0 17.6 Q 168.0 16.1 177.0 15.9 Q 186.0 15.8 195.0 17.3 Q 204.0 18.8 213.0 21.7 Q 222.0 24.6 231.0 27.9 Q 240.0 31.3 249.0 34.0 Q 258.0 36.8 267.0 38.3 Q 276.0 39.8 285.0 39.9 Q 294.0 40.0 303.0 39.3 Q 312.0 38.6 321.0 37.9 Q 330.0 37.1 339.0 36.9 Q 348.0 36.6 357.0 36.9 Q 366.0 37.2 375.0 37.6 Q 384.0 38.0 393.0 37.7 Q 402.0 37.4 411.0 35.9 Q 420.0 34.3 429.0 31.7 Q 438.0 29.1 447.0 25.9 Q 456.0 22.8 465.0 20.2 Q 474.0 17.7 483.0 16.5 Q 492.0 15.3 501.0 15.9 Q 510.0 16.5 519.0 18.5 T 528.0 20.5" stroke="#C7CEDB" stroke-width="0.89" fill="none" opacity="0.085"/><path d="M -30.0 52.0 Q -12.0 64.8 -3.0 69.5 Q 6.0 74.2 15.0 75.6 Q 24.0 77.0 33.0 75.1 Q 42.0 73.3 51.0 69.7 Q 60.0 66.0 69.0 62.6 Q 78.0 59.2 87.0 57.2 Q 96.0 55.3 105.0 54.6 Q 114.0 53.9 123.0 53.1 Q 132.0 52.4 141.0 50.2 Q 150.0 47.9 159.0 43.7 Q 168.0 39.4 177.0 34.0 Q 186.0 28.7 195.0 24.2 Q 204.0 19.8 213.0 18.3 Q 222.0 16.8 231.0 19.1 Q 240.0 21.3 249.0 26.4 Q 258.0 31.5 267.0 37.4 Q 276.0 43.3 285.0 47.7 Q 294.0 52.1 303.0 53.9 Q 312.0 55.7 321.0 55.4 Q 330.0 55.1 339.0 54.1 Q 348.0 53.1 357.0 53.0 Q 366.0 52.9 375.0 54.0 Q 384.0 55.1 393.0 56.6 Q 402.0 58.1 411.0 58.1 Q 420.0 58.1 429.0 55.4 Q 438.0 52.6 447.0 47.0 Q 456.0 41.3 465.0 34.4 Q 474.0 27.4 483.0 21.5 Q 492.0 15.5 501.0 12.6 Q 510.0 9.6 519.0 10.2 T 528.0 10.8" stroke="#C7CEDB" stroke-width="0.58" fill="none" opacity="0.123"/><path d="M -30.0 42.2 Q -12.0 41.7 -3.0 41.1 Q 6.0 40.5 15.0 39.8 Q 24.0 39.1 33.0 39.0 Q 42.0 38.9 51.0 39.7 Q 60.0 40.6 69.0 42.7 Q 78.0 44.8 87.0 48.2 Q 96.0 51.6 105.0 56.0 Q 114.0 60.3 123.0 65.1 Q 132.0 69.8 141.0 74.2 Q 150.0 78.6 159.0 82.0 Q 168.0 85.4 177.0 87.3 Q 186.0 89.1 195.0 89.2 Q 204.0 89.3 213.0 87.8 Q 222.0 86.2 231.0 83.5 Q 240.0 80.8 249.0 77.5 Q 258.0 74.2 267.0 70.9 Q 276.0 67.7 285.0 65.1 Q 294.0 62.4 303.0 60.7 Q 312.0 58.9 321.0 58.0 Q 330.0 57.2 339.0 56.9 Q 348.0 56.6 357.0 56.5 Q 366.0 56.3 375.0 55.9 Q 384.0 55.4 393.0 54.3 Q 402.0 53.1 411.0 51.2 Q 420.0 49.2 429.0 46.6 Q 438.0 44.1 447.0 41.3 Q 456.0 38.6 465.0 36.2 Q 474.0 33.9 483.0 32.6 Q 492.0 31.3 501.0 31.5 Q 510.0 31.7 519.0 33.6 T 528.0 35.5" stroke="#C7CEDB" stroke-width="0.56" fill="none" opacity="0.160"/><path d="M -30.0 64.5 Q -12.0 63.4 -3.0 63.5 Q 6.0 63.5 15.0 65.0 Q 24.0 66.6 33.0 69.8 Q 42.0 73.0 51.0 77.6 Q 60.0 82.1 69.0 87.0 Q 78.0 91.8 87.0 95.7 Q 96.0 99.5 105.0 101.3 Q 114.0 103.1 123.0 102.4 Q 132.0 101.6 141.0 98.7 Q 150.0 95.7 159.0 91.5 Q 168.0 87.3 177.0 83.0 Q 186.0 78.7 195.0 75.4 Q 204.0 72.1 213.0 70.2 Q 222.0 68.4 231.0 67.7 Q 240.0 67.0 249.0 66.8 Q 258.0 66.6 267.0 65.9 Q 276.0 65.3 285.0 63.7 Q 294.0 62.1 303.0 59.6 Q 312.0 57.1 321.0 54.3 Q 330.0 51.5 339.0 49.5 Q 348.0 47.5 357.0 47.3 Q 366.0 47.1 375.0 49.2 Q 384.0 51.3 393.0 55.5 Q 402.0 59.7 411.0 65.0 Q 420.0 70.4 429.0 75.6 Q 438.0 80.8 447.0 84.7 Q 456.0 88.5 465.0 90.3 Q 474.0 92.0 483.0 91.7 Q 492.0 91.4 501.0 89.6 Q 510.0 87.9 519.0 85.7 T 528.0 83.6" stroke="#C7CEDB" stroke-width="0.89" fill="none" opacity="0.196"/><path d="M -30.0 97.3 Q -12.0 87.4 -3.0 85.4 Q 6.0 83.4 15.0 83.2 Q 24.0 82.9 33.0 82.3 Q 42.0 81.6 51.0 79.3 Q 60.0 76.9 69.0 73.2 Q 78.0 69.6 87.0 66.8 Q 96.0 64.0 105.0 64.4 Q 114.0 64.8 123.0 69.5 Q 132.0 74.2 141.0 82.0 Q 150.0 89.8 159.0 97.7 Q 168.0 105.7 177.0 110.8 Q 186.0 115.9 195.0 116.6 Q 204.0 117.4 213.0 114.6 Q 222.0 111.8 231.0 107.7 Q 240.0 103.7 249.0 100.7 Q 258.0 97.8 267.0 96.7 Q 276.0 95.6 285.0 95.2 Q 294.0 94.9 303.0 93.2 Q 312.0 91.6 321.0 87.2 Q 330.0 82.8 339.0 76.1 Q 348.0 69.4 357.0 62.7 Q 366.0 56.0 375.0 52.3 Q 384.0 48.6 393.0 49.7 Q 402.0 50.7 411.0 56.1 Q 420.0 61.4 429.0 68.6 Q 438.0 75.7 447.0 81.8 Q 456.0 87.8 465.0 90.8 Q 474.0 93.8 483.0 94.0 Q 492.0 94.2 501.0 93.5 Q 510.0 92.8 519.0 93.1 T 528.0 93.5" stroke="#C7CEDB" stroke-width="0.77" fill="none" opacity="0.229"/><path d="M -30.0 89.1 Q -12.0 90.7 -3.0 89.6 Q 6.0 88.6 15.0 86.7 Q 24.0 84.9 33.0 84.8 Q 42.0 84.7 51.0 88.4 Q 60.0 92.2 69.0 99.6 Q 78.0 107.1 87.0 115.6 Q 96.0 124.2 105.0 130.2 Q 114.0 136.1 123.0 137.1 Q 132.0 138.0 141.0 134.0 Q 150.0 130.1 159.0 123.9 Q 168.0 117.8 177.0 112.5 Q 186.0 107.2 195.0 104.6 Q 204.0 101.9 213.0 101.1 Q 222.0 100.4 231.0 99.1 Q 240.0 97.9 249.0 94.4 Q 258.0 90.9 267.0 85.4 Q 276.0 79.9 285.0 74.8 Q 294.0 69.7 303.0 68.2 Q 312.0 66.7 321.0 70.3 Q 330.0 74.0 339.0 81.8 Q 348.0 89.7 357.0 98.3 Q 366.0 107.0 375.0 112.9 Q 384.0 118.9 393.0 120.6 Q 402.0 122.3 411.0 120.7 Q 420.0 119.1 429.0 116.8 Q 438.0 114.6 447.0 113.8 Q 456.0 113.0 465.0 113.8 Q 474.0 114.6 483.0 115.0 Q 492.0 115.5 501.0 113.0 Q 510.0 110.5 519.0 104.2 T 528.0 97.8" stroke="#C7CEDB" stroke-width="0.73" fill="none" opacity="0.258"/><path d="M -30.0 146.1 Q -12.0 157.8 -3.0 157.7 Q 6.0 157.5 15.0 152.6 Q 24.0 147.6 33.0 140.7 Q 42.0 133.8 51.0 127.9 Q 60.0 122.1 69.0 118.9 Q 78.0 115.8 87.0 115.0 Q 96.0 114.2 105.0 113.7 Q 114.0 113.2 123.0 110.7 Q 132.0 108.3 141.0 102.7 Q 150.0 97.2 159.0 89.5 Q 168.0 81.8 177.0 74.7 Q 186.0 67.6 195.0 64.4 Q 204.0 61.1 213.0 63.6 Q 222.0 66.2 231.0 74.5 Q 240.0 82.7 249.0 94.2 Q 258.0 105.7 267.0 116.9 Q 276.0 128.0 285.0 135.7 Q 294.0 143.4 303.0 146.4 Q 312.0 149.4 321.0 148.7 Q 330.0 148.1 339.0 146.2 Q 348.0 144.3 357.0 143.7 Q 366.0 143.0 375.0 144.5 Q 384.0 145.9 393.0 148.4 Q 402.0 151.0 411.0 152.1 Q 420.0 153.3 429.0 150.6 Q 438.0 148.0 447.0 140.6 Q 456.0 133.2 465.0 122.5 Q 474.0 111.8 483.0 100.9 Q 492.0 90.0 501.0 82.5 Q 510.0 74.9 519.0 73.1 T 528.0 71.4" stroke="#C7CEDB" stroke-width="0.80" fill="none" opacity="0.284"/><path d="M -30.0 112.1 Q -12.0 114.3 -3.0 114.2 Q 6.0 114.0 15.0 112.1 Q 24.0 110.1 33.0 107.1 Q 42.0 104.1 51.0 102.0 Q 60.0 99.9 69.0 100.8 Q 78.0 101.6 87.0 106.6 Q 96.0 111.6 105.0 120.3 Q 114.0 129.0 123.0 139.6 Q 132.0 150.2 141.0 159.9 Q 150.0 169.5 159.0 175.5 Q 168.0 181.6 177.0 182.7 Q 186.0 183.7 195.0 180.1 Q 204.0 176.5 213.0 170.0 Q 222.0 163.5 231.0 156.5 Q 240.0 149.6 249.0 144.3 Q 258.0 139.0 267.0 136.1 Q 276.0 133.2 285.0 132.1 Q 294.0 131.0 303.0 130.0 Q 312.0 128.9 321.0 126.2 Q 330.0 123.4 339.0 118.1 Q 348.0 112.8 357.0 105.5 Q 366.0 98.1 375.0 90.7 Q 384.0 83.3 393.0 78.3 Q 402.0 73.4 411.0 72.9 Q 420.0 72.5 429.0 77.2 Q 438.0 81.9 447.0 90.7 Q 456.0 99.4 465.0 109.8 Q 474.0 120.2 483.0 129.5 Q 492.0 138.7 501.0 144.5 Q 510.0 150.4 519.0 152.3 T 528.0 154.1" stroke="#C7CEDB" stroke-width="0.70" fill="none" opacity="0.306"/><path d="M -30.0 186.5 Q -12.0 180.5 -3.0 175.4 Q 6.0 170.3 15.0 164.6 Q 24.0 158.8 33.0 153.8 Q 42.0 148.8 51.0 145.3 Q 60.0 141.9 69.0 140.2 Q 78.0 138.5 87.0 138.0 Q 96.0 137.5 105.0 137.3 Q 114.0 137.1 123.0 136.1 Q 132.0 135.1 141.0 132.6 Q 150.0 130.1 159.0 126.0 Q 168.0 121.9 177.0 116.8 Q 186.0 111.8 195.0 107.0 Q 204.0 102.2 213.0 99.0 Q 222.0 95.9 231.0 95.6 Q 240.0 95.2 249.0 98.3 Q 258.0 101.4 267.0 107.7 Q 276.0 114.0 285.0 122.3 Q 294.0 130.7 303.0 139.7 Q 312.0 148.7 321.0 156.6 Q 330.0 164.6 339.0 170.2 Q 348.0 175.9 357.0 178.7 Q 366.0 181.6 375.0 181.8 Q 384.0 182.0 393.0 180.5 Q 402.0 179.0 411.0 177.0 Q 420.0 175.0 429.0 173.6 Q 438.0 172.2 447.0 172.0 Q 456.0 171.8 465.0 172.7 Q 474.0 173.6 483.0 174.9 Q 492.0 176.3 501.0 176.9 Q 510.0 177.5 519.0 176.4 T 528.0 175.3" stroke="#C7CEDB" stroke-width="0.63" fill="none" opacity="0.322"/><path d="M -30.0 130.4 Q -12.0 133.6 -3.0 133.6 Q 6.0 133.6 15.0 131.2 Q 24.0 128.9 33.0 125.6 Q 42.0 122.2 51.0 120.8 Q 60.0 119.4 69.0 122.5 Q 78.0 125.6 87.0 134.2 Q 96.0 142.8 105.0 155.3 Q 114.0 167.8 123.0 180.8 Q 132.0 193.7 141.0 203.1 Q 150.0 212.5 159.0 215.7 Q 168.0 218.9 177.0 215.6 Q 186.0 212.4 195.0 204.8 Q 204.0 197.3 213.0 189.0 Q 222.0 180.6 231.0 174.4 Q 240.0 168.2 249.0 165.2 Q 258.0 162.2 267.0 161.3 Q 276.0 160.3 285.0 159.0 Q 294.0 157.6 303.0 153.5 Q 312.0 149.4 321.0 142.0 Q 330.0 134.6 339.0 125.5 Q 348.0 116.4 357.0 109.0 Q 366.0 101.5 375.0 99.0 Q 384.0 96.5 393.0 100.7 Q 402.0 105.0 411.0 115.1 Q 420.0 125.2 429.0 138.2 Q 438.0 151.2 447.0 163.0 Q 456.0 174.7 465.0 182.2 Q 474.0 189.7 483.0 191.9 Q 492.0 194.1 501.0 192.5 Q 510.0 190.8 519.0 188.1 T 528.0 185.4" stroke="#C7CEDB" stroke-width="0.62" fill="none" opacity="0.334"/><path d="M -30.0 228.7 Q -12.0 218.7 -3.0 209.2 Q 6.0 199.8 15.0 191.0 Q 24.0 182.3 33.0 177.5 Q 42.0 172.7 51.0 171.4 Q 60.0 170.0 69.0 168.8 Q 78.0 167.5 87.0 163.2 Q 96.0 158.8 105.0 151.1 Q 114.0 143.4 123.0 135.9 Q 132.0 128.4 141.0 126.0 Q 150.0 123.6 159.0 129.1 Q 168.0 134.7 177.0 146.7 Q 186.0 158.8 195.0 172.4 Q 204.0 186.0 213.0 195.5 Q 222.0 205.0 231.0 207.7 Q 240.0 210.4 249.0 207.8 Q 258.0 205.2 267.0 201.5 Q 276.0 197.7 285.0 196.3 Q 294.0 194.9 303.0 195.9 Q 312.0 197.0 321.0 197.4 Q 330.0 197.9 339.0 193.9 Q 348.0 189.8 357.0 180.0 Q 366.0 170.2 375.0 157.4 Q 384.0 144.5 393.0 134.0 Q 402.0 123.6 411.0 120.3 Q 420.0 117.0 429.0 122.0 Q 438.0 126.9 447.0 136.8 Q 456.0 146.8 465.0 156.4 Q 474.0 166.1 483.0 171.7 Q 492.0 177.3 501.0 178.7 Q 510.0 180.2 519.0 180.7 T 528.0 181.3" stroke="#C7CEDB" stroke-width="0.54" fill="none" opacity="0.339"/><path d="M -30.0 185.3 Q -12.0 203.7 -3.0 211.5 Q 6.0 219.2 15.0 223.0 Q 24.0 226.8 33.0 226.0 Q 42.0 225.2 51.0 221.1 Q 60.0 217.1 69.0 212.4 Q 78.0 207.6 87.0 204.4 Q 96.0 201.1 105.0 199.8 Q 114.0 198.6 123.0 198.1 Q 132.0 197.7 141.0 196.0 Q 150.0 194.3 159.0 190.0 Q 168.0 185.6 177.0 178.8 Q 186.0 172.0 195.0 164.9 Q 204.0 157.7 213.0 153.0 Q 222.0 148.4 231.0 148.4 Q 240.0 148.4 249.0 153.3 Q 258.0 158.1 267.0 166.0 Q 276.0 173.9 285.0 181.8 Q 294.0 189.6 303.0 194.9 Q 312.0 200.2 321.0 202.1 Q 330.0 203.9 339.0 203.3 Q 348.0 202.7 357.0 201.8 Q 366.0 201.0 375.0 201.5 Q 384.0 202.1 393.0 204.2 Q 402.0 206.4 411.0 208.7 Q 420.0 210.9 429.0 210.9 Q 438.0 210.9 447.0 206.9 Q 456.0 202.9 465.0 195.1 Q 474.0 187.3 483.0 177.9 Q 492.0 168.4 501.0 160.4 Q 510.0 152.4 519.0 148.4 T 528.0 144.5" stroke="#C7CEDB" stroke-width="0.75" fill="none" opacity="0.339"/><path d="M -30.0 204.2 Q -12.0 221.6 -3.0 229.6 Q 6.0 237.6 15.0 243.6 Q 24.0 249.5 33.0 252.6 Q 42.0 255.6 51.0 255.6 Q 60.0 255.5 69.0 252.9 Q 78.0 250.2 87.0 246.0 Q 96.0 241.8 105.0 237.2 Q 114.0 232.7 123.0 228.8 Q 132.0 225.0 141.0 222.4 Q 150.0 219.9 159.0 218.7 Q 168.0 217.5 177.0 217.0 Q 186.0 216.5 195.0 215.8 Q 204.0 215.1 213.0 213.2 Q 222.0 211.4 231.0 207.7 Q 240.0 203.9 249.0 198.3 Q 258.0 192.7 267.0 185.7 Q 276.0 178.6 285.0 171.4 Q 294.0 164.1 303.0 157.9 Q 312.0 151.7 321.0 147.8 Q 330.0 144.0 339.0 143.4 Q 348.0 142.8 357.0 145.6 Q 366.0 148.4 375.0 154.1 Q 384.0 159.7 393.0 167.1 Q 402.0 174.4 411.0 182.0 Q 420.0 189.7 429.0 196.2 Q 438.0 202.8 447.0 207.3 Q 456.0 211.8 465.0 214.1 Q 474.0 216.3 483.0 216.6 Q 492.0 216.8 501.0 216.0 Q 510.0 215.1 519.0 214.1 T 528.0 213.2" stroke="#C7CEDB" stroke-width="0.67" fill="none" opacity="0.334"/><path d="M -30.0 209.4 Q -12.0 202.4 -3.0 201.7 Q 6.0 201.0 15.0 201.2 Q 24.0 201.4 33.0 200.5 Q 42.0 199.6 51.0 196.6 Q 60.0 193.5 69.0 189.0 Q 78.0 184.4 87.0 180.2 Q 96.0 176.0 105.0 174.6 Q 114.0 173.2 123.0 176.4 Q 132.0 179.6 141.0 187.6 Q 150.0 195.6 159.0 206.8 Q 168.0 218.1 177.0 229.8 Q 186.0 241.5 195.0 250.5 Q 204.0 259.5 213.0 263.7 Q 222.0 268.0 231.0 267.0 Q 240.0 266.1 249.0 261.4 Q 258.0 256.6 267.0 250.5 Q 276.0 244.4 285.0 239.2 Q 294.0 234.1 303.0 231.2 Q 312.0 228.3 321.0 227.3 Q 330.0 226.4 339.0 225.7 Q 348.0 225.1 357.0 222.8 Q 366.0 220.4 375.0 215.0 Q 384.0 209.6 393.0 201.2 Q 402.0 192.8 411.0 183.2 Q 420.0 173.6 429.0 165.6 Q 438.0 157.5 447.0 153.7 Q 456.0 149.9 465.0 151.7 Q 474.0 153.6 483.0 160.6 Q 492.0 167.7 501.0 177.9 Q 510.0 188.1 519.0 198.4 T 528.0 208.8" stroke="#C7CEDB" stroke-width="0.55" fill="none" opacity="0.322"/><path d="M -30.0 215.0 Q -12.0 230.8 -3.0 239.8 Q 6.0 248.7 15.0 256.7 Q 24.0 264.7 33.0 270.0 Q 42.0 275.3 51.0 277.0 Q 60.0 278.7 69.0 277.0 Q 78.0 275.4 87.0 271.6 Q 96.0 267.8 105.0 263.4 Q 114.0 259.1 123.0 255.6 Q 132.0 252.1 141.0 250.2 Q 150.0 248.3 159.0 247.7 Q 168.0 247.1 177.0 246.7 Q 186.0 246.3 195.0 244.7 Q 204.0 243.2 213.0 239.5 Q 222.0 235.7 231.0 229.6 Q 240.0 223.5 249.0 215.9 Q 258.0 208.2 267.0 200.6 Q 276.0 193.0 285.0 187.4 Q 294.0 181.8 303.0 179.6 Q 312.0 177.5 321.0 179.4 Q 330.0 181.4 339.0 186.8 Q 348.0 192.2 357.0 199.7 Q 366.0 207.1 375.0 214.6 Q 384.0 222.1 393.0 227.9 Q 402.0 233.7 411.0 237.0 Q 420.0 240.2 429.0 241.1 Q 438.0 241.9 447.0 241.3 Q 456.0 240.7 465.0 240.0 Q 474.0 239.3 483.0 239.7 Q 492.0 240.1 501.0 242.0 Q 510.0 243.9 519.0 246.8 T 528.0 249.6" stroke="#C7CEDB" stroke-width="0.72" fill="none" opacity="0.306"/><path d="M -30.0 263.5 Q -12.0 268.4 -3.0 268.5 Q 6.0 268.6 15.0 266.8 Q 24.0 264.9 33.0 261.9 Q 42.0 258.8 51.0 255.5 Q 60.0 252.2 69.0 249.5 Q 78.0 246.8 87.0 245.1 Q 96.0 243.4 105.0 242.7 Q 114.0 242.1 123.0 242.1 Q 132.0 242.1 141.0 242.0 Q 150.0 241.9 159.0 241.1 Q 168.0 240.3 177.0 238.4 Q 186.0 236.4 195.0 233.3 Q 204.0 230.2 213.0 226.4 Q 222.0 222.7 231.0 219.1 Q 240.0 215.5 249.0 213.1 Q 258.0 210.7 267.0 210.2 Q 276.0 209.8 285.0 211.6 Q 294.0 213.5 303.0 217.6 Q 312.0 221.7 321.0 227.3 Q 330.0 233.0 339.0 239.1 Q 348.0 245.3 357.0 250.9 Q 366.0 256.6 375.0 260.8 Q 384.0 265.1 393.0 267.5 Q 402.0 270.0 411.0 270.7 Q 420.0 271.5 429.0 271.1 Q 438.0 270.7 447.0 269.9 Q 456.0 269.2 465.0 268.8 Q 474.0 268.4 483.0 268.7 Q 492.0 269.1 501.0 270.3 Q 510.0 271.4 519.0 272.9 T 528.0 274.4" stroke="#C7CEDB" stroke-width="0.77" fill="none" opacity="0.284"/><path d="M -30.0 301.0 Q -12.0 295.5 -3.0 289.4 Q 6.0 283.4 15.0 276.6 Q 24.0 269.9 33.0 264.8 Q 42.0 259.7 51.0 257.2 Q 60.0 254.7 69.0 254.0 Q 78.0 253.4 87.0 252.8 Q 96.0 252.1 105.0 249.7 Q 114.0 247.3 123.0 242.6 Q 132.0 237.8 141.0 231.8 Q 150.0 225.7 159.0 220.7 Q 168.0 215.7 177.0 214.2 Q 186.0 212.8 195.0 216.3 Q 204.0 219.8 213.0 227.8 Q 222.0 235.8 231.0 246.0 Q 240.0 256.3 249.0 265.7 Q 258.0 275.1 267.0 281.2 Q 276.0 287.3 285.0 289.2 Q 294.0 291.1 303.0 289.8 Q 312.0 288.5 321.0 286.0 Q 330.0 283.5 339.0 282.0 Q 348.0 280.4 357.0 280.7 Q 366.0 280.9 375.0 282.3 Q 384.0 283.6 393.0 284.1 Q 402.0 284.7 411.0 282.3 Q 420.0 280.0 429.0 274.0 Q 438.0 267.9 447.0 259.1 Q 456.0 250.2 465.0 241.0 Q 474.0 231.8 483.0 225.2 Q 492.0 218.6 501.0 216.7 Q 510.0 214.8 519.0 218.0 T 528.0 221.2" stroke="#C7CEDB" stroke-width="0.58" fill="none" opacity="0.258"/><path d="M -30.0 249.1 Q -12.0 248.1 -3.0 247.5 Q 6.0 246.8 15.0 247.0 Q 24.0 247.2 33.0 248.9 Q 42.0 250.7 51.0 254.5 Q 60.0 258.3 69.0 263.9 Q 78.0 269.5 87.0 276.1 Q 96.0 282.7 105.0 289.2 Q 114.0 295.7 123.0 300.8 Q 132.0 305.9 141.0 308.6 Q 150.0 311.4 159.0 311.3 Q 168.0 311.2 177.0 308.6 Q 186.0 306.0 195.0 301.6 Q 204.0 297.2 213.0 292.3 Q 222.0 287.3 231.0 282.8 Q 240.0 278.4 249.0 275.2 Q 258.0 272.1 267.0 270.4 Q 276.0 268.8 285.0 268.3 Q 294.0 267.9 303.0 267.8 Q 312.0 267.8 321.0 267.3 Q 330.0 266.8 339.0 265.3 Q 348.0 263.8 357.0 261.1 Q 366.0 258.3 375.0 254.8 Q 384.0 251.3 393.0 247.9 Q 402.0 244.5 411.0 242.3 Q 420.0 240.1 429.0 240.0 Q 438.0 239.9 447.0 242.5 Q 456.0 245.0 465.0 250.0 Q 474.0 255.0 483.0 261.7 Q 492.0 268.4 501.0 275.7 Q 510.0 282.9 519.0 289.3 T 528.0 295.8" stroke="#C7CEDB" stroke-width="0.56" fill="none" opacity="0.229"/><path d="M -30.0 319.5 Q -12.0 311.5 -3.0 306.5 Q 6.0 301.6 15.0 297.4 Q 24.0 293.2 33.0 290.9 Q 42.0 288.5 51.0 287.7 Q 60.0 286.9 69.0 286.4 Q 78.0 285.9 87.0 284.4 Q 96.0 282.9 105.0 279.8 Q 114.0 276.7 123.0 272.8 Q 132.0 268.9 141.0 265.7 Q 150.0 262.5 159.0 261.7 Q 168.0 261.0 177.0 263.7 Q 186.0 266.3 195.0 271.8 Q 204.0 277.3 213.0 283.9 Q 222.0 290.5 231.0 296.1 Q 240.0 301.7 249.0 304.7 Q 258.0 307.7 267.0 307.8 Q 276.0 307.9 285.0 306.1 Q 294.0 304.3 303.0 302.3 Q 312.0 300.2 321.0 299.1 Q 330.0 298.1 339.0 298.2 Q 348.0 298.3 357.0 298.7 Q 366.0 299.0 375.0 298.2 Q 384.0 297.3 393.0 294.2 Q 402.0 291.0 411.0 285.6 Q 420.0 280.2 429.0 273.9 Q 438.0 267.6 447.0 262.5 Q 456.0 257.4 465.0 255.2 Q 474.0 253.0 483.0 254.4 Q 492.0 255.8 501.0 260.0 Q 510.0 264.1 519.0 269.2 T 528.0 274.3" stroke="#C7CEDB" stroke-width="0.53" fill="none" opacity="0.196"/><path d="M -30.0 296.1 Q -12.0 294.5 -3.0 293.5 Q 6.0 292.4 15.0 291.7 Q 24.0 290.9 33.0 291.1 Q 42.0 291.3 51.0 292.9 Q 60.0 294.4 69.0 297.5 Q 78.0 300.5 87.0 304.7 Q 96.0 309.0 105.0 313.7 Q 114.0 318.5 123.0 323.0 Q 132.0 327.5 141.0 330.8 Q 150.0 334.1 159.0 335.7 Q 168.0 337.3 177.0 336.8 Q 186.0 336.4 195.0 334.1 Q 204.0 331.7 213.0 328.1 Q 222.0 324.5 231.0 320.3 Q 240.0 316.2 249.0 312.2 Q 258.0 308.3 267.0 305.2 Q 276.0 302.0 285.0 300.0 Q 294.0 298.0 303.0 296.9 Q 312.0 295.8 321.0 295.2 Q 330.0 294.7 339.0 294.1 Q 348.0 293.5 357.0 292.3 Q 366.0 291.2 375.0 289.1 Q 384.0 287.1 393.0 284.2 Q 402.0 281.4 411.0 278.1 Q 420.0 274.8 429.0 271.7 Q 438.0 268.7 447.0 266.6 Q 456.0 264.6 465.0 264.1 Q 474.0 263.7 483.0 265.2 Q 492.0 266.6 501.0 269.9 Q 510.0 273.2 519.0 277.8 T 528.0 282.4" stroke="#C7CEDB" stroke-width="0.74" fill="none" opacity="0.160"/><path d="M -30.0 312.8 Q -12.0 312.7 -3.0 311.7 Q 6.0 310.7 15.0 310.1 Q 24.0 309.4 33.0 310.6 Q 42.0 311.8 51.0 315.4 Q 60.0 319.0 69.0 324.0 Q 78.0 329.0 87.0 333.3 Q 96.0 337.6 105.0 339.1 Q 114.0 340.7 123.0 339.0 Q 132.0 337.4 141.0 333.6 Q 150.0 329.7 159.0 325.8 Q 168.0 321.9 177.0 319.3 Q 186.0 316.8 195.0 315.9 Q 204.0 314.9 213.0 314.4 Q 222.0 313.8 231.0 312.3 Q 240.0 310.8 249.0 307.8 Q 258.0 304.9 267.0 301.6 Q 276.0 298.2 285.0 296.3 Q 294.0 294.5 303.0 295.6 Q 312.0 296.7 321.0 300.7 Q 330.0 304.7 339.0 310.0 Q 348.0 315.3 357.0 319.6 Q 366.0 323.9 375.0 325.7 Q 384.0 327.5 393.0 326.8 Q 402.0 326.2 411.0 324.4 Q 420.0 322.6 429.0 321.4 Q 438.0 320.1 447.0 320.0 Q 456.0 319.9 465.0 320.1 Q 474.0 320.4 483.0 319.4 Q 492.0 318.5 501.0 315.3 Q 510.0 312.1 519.0 307.1 T 528.0 302.1" stroke="#C7CEDB" stroke-width="0.79" fill="none" opacity="0.123"/><path d="M -30.0 327.6 Q -12.0 327.3 -3.0 327.4 Q 6.0 327.5 15.0 327.3 Q 24.0 327.2 33.0 326.5 Q 42.0 325.8 51.0 324.8 Q 60.0 323.7 69.0 322.8 Q 78.0 321.8 87.0 321.6 Q 96.0 321.4 105.0 322.3 Q 114.0 323.2 123.0 325.3 Q 132.0 327.4 141.0 330.2 Q 150.0 333.0 159.0 335.9 Q 168.0 338.7 177.0 340.8 Q 186.0 342.8 195.0 343.6 Q 204.0 344.4 213.0 343.8 Q 222.0 343.2 231.0 341.7 Q 240.0 340.2 249.0 338.4 Q 258.0 336.6 267.0 335.2 Q 276.0 333.7 285.0 332.8 Q 294.0 332.0 303.0 331.6 Q 312.0 331.3 321.0 331.0 Q 330.0 330.7 339.0 330.0 Q 348.0 329.3 357.0 327.8 Q 366.0 326.3 375.0 324.2 Q 384.0 322.0 393.0 319.7 Q 402.0 317.3 411.0 315.5 Q 420.0 313.7 429.0 313.0 Q 438.0 312.4 447.0 313.2 Q 456.0 313.9 465.0 316.0 Q 474.0 318.0 483.0 320.7 Q 492.0 323.4 501.0 326.0 Q 510.0 328.5 519.0 330.3 T 528.0 332.1" stroke="#C7CEDB" stroke-width="0.83" fill="none" opacity="0.085"/><circle cx="372" cy="96" r="2.1" fill="#9DB4E6" opacity="0.85"/><circle cx="372" cy="96" r="5.5" fill="#7FA8FF" opacity="0.30"/><circle cx="238" cy="150" r="2.1" fill="#9DB4E6" opacity="0.85"/><circle cx="238" cy="150" r="5.5" fill="#7FA8FF" opacity="0.30"/><circle cx="150" cy="60" r="2.1" fill="#9DB4E6" opacity="0.85"/><circle cx="150" cy="60" r="5.5" fill="#7FA8FF" opacity="0.30"/><circle cx="410" cy="176" r="2.1" fill="#9DB4E6" opacity="0.85"/><circle cx="410" cy="176" r="5.5" fill="#7FA8FF" opacity="0.30"/><circle cx="300" cy="232" r="2.1" fill="#9DB4E6" opacity="0.85"/><circle cx="300" cy="232" r="5.5" fill="#7FA8FF" opacity="0.30"/></g>
<g opacity="0.5"><path d="M -30.0 489.9 Q -12.0 486.5 -3.0 484.2 Q 6.0 481.8 15.0 479.7 Q 24.0 477.6 33.0 476.2 Q 42.0 474.8 51.0 474.2 Q 60.0 473.5 69.0 473.2 Q 78.0 472.8 87.0 472.2 Q 96.0 471.5 105.0 470.2 Q 114.0 468.9 123.0 467.0 Q 132.0 465.1 141.0 463.3 Q 150.0 461.5 159.0 460.4 Q 168.0 459.4 177.0 459.8 Q 186.0 460.1 195.0 461.9 Q 204.0 463.7 213.0 466.3 Q 222.0 469.0 231.0 471.6 Q 240.0 474.3 249.0 476.1 Q 258.0 477.9 267.0 478.4 Q 276.0 479.0 285.0 478.4 Q 294.0 477.9 303.0 476.8 Q 312.0 475.8 321.0 474.9 Q 330.0 474.0 339.0 473.6 Q 348.0 473.3 357.0 473.3 Q 366.0 473.3 375.0 473.2 Q 384.0 473.1 393.0 472.3 Q 402.0 471.5 411.0 469.6 Q 420.0 467.7 429.0 464.9 Q 438.0 462.1 447.0 459.2 Q 456.0 456.3 465.0 454.1 Q 474.0 451.9 483.0 451.1 Q 492.0 450.3 501.0 451.1 Q 510.0 451.8 519.0 453.6 T 528.0 455.4" stroke="#C7CEDB" stroke-width="0.88" fill="none" opacity="0.030"/><path d="M -30.0 495.1 Q -12.0 502.3 -3.0 504.6 Q 6.0 506.9 15.0 507.5 Q 24.0 508.0 33.0 507.0 Q 42.0 505.9 51.0 503.9 Q 60.0 501.8 69.0 499.7 Q 78.0 497.5 87.0 495.9 Q 96.0 494.3 105.0 493.6 Q 114.0 492.8 123.0 492.5 Q 132.0 492.3 141.0 492.0 Q 150.0 491.7 159.0 490.8 Q 168.0 489.8 177.0 487.8 Q 186.0 485.8 195.0 483.0 Q 204.0 480.2 213.0 477.2 Q 222.0 474.2 231.0 472.0 Q 240.0 469.7 249.0 469.0 Q 258.0 468.3 267.0 469.4 Q 276.0 470.6 285.0 473.4 Q 294.0 476.1 303.0 479.8 Q 312.0 483.5 321.0 487.0 Q 330.0 490.6 339.0 493.2 Q 348.0 495.8 357.0 497.1 Q 366.0 498.4 375.0 498.5 Q 384.0 498.6 393.0 498.1 Q 402.0 497.6 411.0 497.2 Q 420.0 496.8 429.0 497.0 Q 438.0 497.3 447.0 498.1 Q 456.0 498.9 465.0 499.9 Q 474.0 500.8 483.0 501.2 Q 492.0 501.6 501.0 500.8 Q 510.0 499.9 519.0 497.5 T 528.0 495.2" stroke="#C7CEDB" stroke-width="0.85" fill="none" opacity="0.064"/><path d="M -30.0 486.9 Q -12.0 489.1 -3.0 489.1 Q 6.0 489.2 15.0 488.1 Q 24.0 487.1 33.0 486.3 Q 42.0 485.6 51.0 486.8 Q 60.0 488.1 69.0 492.3 Q 78.0 496.4 87.0 502.6 Q 96.0 508.9 105.0 514.9 Q 114.0 521.0 123.0 524.6 Q 132.0 528.1 141.0 528.1 Q 150.0 528.1 159.0 525.2 Q 168.0 522.3 177.0 518.5 Q 186.0 514.7 195.0 512.0 Q 204.0 509.3 213.0 508.3 Q 222.0 507.3 231.0 507.2 Q 240.0 507.1 249.0 506.2 Q 258.0 505.4 267.0 502.9 Q 276.0 500.4 285.0 496.6 Q 294.0 492.8 303.0 489.6 Q 312.0 486.3 321.0 485.8 Q 330.0 485.2 339.0 488.3 Q 348.0 491.3 357.0 497.1 Q 366.0 502.9 375.0 509.3 Q 384.0 515.6 393.0 520.1 Q 402.0 524.7 411.0 526.4 Q 420.0 528.1 429.0 527.5 Q 438.0 527.0 447.0 525.9 Q 456.0 524.9 465.0 524.8 Q 474.0 524.7 483.0 525.8 Q 492.0 526.9 501.0 527.8 Q 510.0 528.8 519.0 527.9 T 528.0 527.0" stroke="#C7CEDB" stroke-width="0.80" fill="none" opacity="0.094"/><path d="M -30.0 512.2 Q -12.0 527.3 -3.0 533.7 Q 6.0 540.2 15.0 543.8 Q 24.0 547.5 33.0 547.9 Q 42.0 548.2 51.0 546.0 Q 60.0 543.7 69.0 540.5 Q 78.0 537.2 87.0 534.6 Q 96.0 531.9 105.0 530.7 Q 114.0 529.5 123.0 529.4 Q 132.0 529.3 141.0 529.3 Q 150.0 529.2 159.0 527.9 Q 168.0 526.5 177.0 523.1 Q 186.0 519.7 195.0 514.8 Q 204.0 509.8 213.0 504.8 Q 222.0 499.7 231.0 496.5 Q 240.0 493.2 249.0 493.3 Q 258.0 493.3 267.0 496.9 Q 276.0 500.4 285.0 506.5 Q 294.0 512.7 303.0 519.4 Q 312.0 526.2 321.0 531.7 Q 330.0 537.2 339.0 540.4 Q 348.0 543.5 357.0 544.4 Q 366.0 545.3 375.0 545.0 Q 384.0 544.7 393.0 544.7 Q 402.0 544.6 411.0 545.8 Q 420.0 546.9 429.0 549.2 Q 438.0 551.4 447.0 553.6 Q 456.0 555.7 465.0 556.3 Q 474.0 556.8 483.0 554.6 Q 492.0 552.3 501.0 547.3 Q 510.0 542.2 519.0 535.5 T 528.0 528.7" stroke="#C7CEDB" stroke-width="0.81" fill="none" opacity="0.113"/><path d="M -30.0 536.5 Q -12.0 535.0 -3.0 535.3 Q 6.0 535.7 15.0 538.2 Q 24.0 540.7 33.0 545.6 Q 42.0 550.6 51.0 557.0 Q 60.0 563.3 69.0 569.3 Q 78.0 575.2 87.0 578.8 Q 96.0 582.4 105.0 582.4 Q 114.0 582.5 123.0 579.0 Q 132.0 575.6 141.0 570.0 Q 150.0 564.5 159.0 558.6 Q 168.0 552.8 177.0 548.4 Q 186.0 543.9 195.0 541.6 Q 204.0 539.2 213.0 538.5 Q 222.0 537.8 231.0 537.4 Q 240.0 537.0 249.0 535.8 Q 258.0 534.5 267.0 531.7 Q 276.0 529.0 285.0 525.3 Q 294.0 521.6 303.0 518.4 Q 312.0 515.2 321.0 514.2 Q 330.0 513.2 339.0 515.5 Q 348.0 517.8 357.0 523.1 Q 366.0 528.5 375.0 535.7 Q 384.0 542.8 393.0 549.6 Q 402.0 556.5 411.0 561.1 Q 420.0 565.8 429.0 567.2 Q 438.0 568.7 447.0 567.4 Q 456.0 566.1 465.0 563.2 Q 474.0 560.4 483.0 557.7 Q 492.0 554.9 501.0 553.4 Q 510.0 551.9 519.0 551.6 T 528.0 551.3" stroke="#C7CEDB" stroke-width="0.62" fill="none" opacity="0.120"/><path d="M -30.0 562.7 Q -12.0 558.8 -3.0 557.9 Q 6.0 557.0 15.0 556.9 Q 24.0 556.7 33.0 556.8 Q 42.0 556.8 51.0 556.4 Q 60.0 556.1 69.0 555.0 Q 78.0 554.0 87.0 552.4 Q 96.0 550.7 105.0 548.8 Q 114.0 547.0 123.0 545.6 Q 132.0 544.2 141.0 543.9 Q 150.0 543.6 159.0 544.9 Q 168.0 546.2 177.0 549.0 Q 186.0 551.9 195.0 555.9 Q 204.0 559.9 213.0 564.4 Q 222.0 568.9 231.0 572.9 Q 240.0 576.9 249.0 579.8 Q 258.0 582.6 267.0 583.8 Q 276.0 585.1 285.0 584.7 Q 294.0 584.3 303.0 582.8 Q 312.0 581.3 321.0 579.2 Q 330.0 577.2 339.0 575.3 Q 348.0 573.5 357.0 572.3 Q 366.0 571.0 375.0 570.5 Q 384.0 570.0 393.0 569.9 Q 402.0 569.8 411.0 569.6 Q 420.0 569.5 429.0 568.6 Q 438.0 567.8 447.0 565.9 Q 456.0 564.0 465.0 561.1 Q 474.0 558.2 483.0 554.6 Q 492.0 551.0 501.0 547.5 Q 510.0 544.1 519.0 541.4 T 528.0 538.8" stroke="#C7CEDB" stroke-width="0.77" fill="none" opacity="0.113"/><path d="M -30.0 594.1 Q -12.0 586.7 -3.0 582.5 Q 6.0 578.4 15.0 575.8 Q 24.0 573.3 33.0 572.7 Q 42.0 572.0 51.0 572.1 Q 60.0 572.1 69.0 571.1 Q 78.0 570.1 87.0 567.5 Q 96.0 564.9 105.0 562.0 Q 114.0 559.1 123.0 558.1 Q 132.0 557.0 141.0 559.4 Q 150.0 561.9 159.0 567.4 Q 168.0 573.0 177.0 579.5 Q 186.0 586.0 195.0 590.8 Q 204.0 595.6 213.0 597.3 Q 222.0 599.0 231.0 598.0 Q 240.0 597.1 249.0 595.4 Q 258.0 593.8 267.0 593.1 Q 276.0 592.5 285.0 593.0 Q 294.0 593.6 303.0 594.0 Q 312.0 594.3 321.0 592.8 Q 330.0 591.2 339.0 587.2 Q 348.0 583.1 357.0 577.8 Q 366.0 572.6 375.0 568.7 Q 384.0 564.8 393.0 564.3 Q 402.0 563.9 411.0 567.1 Q 420.0 570.3 429.0 575.4 Q 438.0 580.6 447.0 585.2 Q 456.0 589.8 465.0 592.3 Q 474.0 594.9 483.0 595.6 Q 492.0 596.4 501.0 596.9 Q 510.0 597.5 519.0 599.3 T 528.0 601.1" stroke="#C7CEDB" stroke-width="0.54" fill="none" opacity="0.094"/><path d="M -30.0 609.9 Q -12.0 615.2 -3.0 617.4 Q 6.0 619.7 15.0 621.1 Q 24.0 622.5 33.0 622.8 Q 42.0 623.1 51.0 622.3 Q 60.0 621.5 69.0 620.0 Q 78.0 618.5 87.0 616.8 Q 96.0 615.0 105.0 613.5 Q 114.0 611.9 123.0 610.8 Q 132.0 609.7 141.0 609.1 Q 150.0 608.5 159.0 608.1 Q 168.0 607.7 177.0 607.2 Q 186.0 606.7 195.0 605.7 Q 204.0 604.6 213.0 602.9 Q 222.0 601.2 231.0 598.8 Q 240.0 596.5 249.0 593.9 Q 258.0 591.3 267.0 589.0 Q 276.0 586.6 285.0 585.1 Q 294.0 583.5 303.0 583.1 Q 312.0 582.7 321.0 583.5 Q 330.0 584.4 339.0 586.2 Q 348.0 588.0 357.0 590.3 Q 366.0 592.6 375.0 594.8 Q 384.0 597.0 393.0 598.7 Q 402.0 600.3 411.0 601.2 Q 420.0 602.0 429.0 602.0 Q 438.0 602.1 447.0 601.6 Q 456.0 601.2 465.0 600.6 Q 474.0 600.0 483.0 599.7 Q 492.0 599.4 501.0 599.6 Q 510.0 599.7 519.0 600.2 T 528.0 600.7" stroke="#C7CEDB" stroke-width="0.51" fill="none" opacity="0.064"/><path d="M -30.0 604.0 Q -12.0 604.5 -3.0 604.5 Q 6.0 604.5 15.0 604.4 Q 24.0 604.3 33.0 604.4 Q 42.0 604.6 51.0 605.5 Q 60.0 606.3 69.0 607.9 Q 78.0 609.5 87.0 611.8 Q 96.0 614.2 105.0 616.9 Q 114.0 619.6 123.0 622.2 Q 132.0 624.8 141.0 626.8 Q 150.0 628.8 159.0 629.9 Q 168.0 630.9 177.0 631.0 Q 186.0 631.0 195.0 630.1 Q 204.0 629.2 213.0 627.9 Q 222.0 626.5 231.0 625.1 Q 240.0 623.7 249.0 622.7 Q 258.0 621.6 267.0 621.1 Q 276.0 620.6 285.0 620.6 Q 294.0 620.6 303.0 620.8 Q 312.0 621.0 321.0 621.0 Q 330.0 621.1 339.0 620.8 Q 348.0 620.5 357.0 619.7 Q 366.0 618.9 375.0 617.7 Q 384.0 616.6 393.0 615.4 Q 402.0 614.3 411.0 613.7 Q 420.0 613.0 429.0 613.2 Q 438.0 613.3 447.0 614.5 Q 456.0 615.7 465.0 617.9 Q 474.0 620.0 483.0 622.7 Q 492.0 625.4 501.0 628.2 Q 510.0 631.0 519.0 633.4 T 528.0 635.8" stroke="#C7CEDB" stroke-width="0.55" fill="none" opacity="0.030"/></g>
</svg>